solid STLB ATF 2.0.0.9000 COLOR=                                                  
 facet normal 0 1 0
  outer loop
   vertex 0 40.080001831054688 15.310000419616699
   vertex 14.560675621032715 40.080001831054688 4.73105001449585
   vertex -14.560675621032715 40.080001831054688 4.73105001449585
  endloop
 endfacet
 facet normal 0 1 0
  outer loop
   vertex -14.560675621032715 40.080001831054688 4.73105001449585
   vertex 14.560675621032715 40.080001831054688 4.73105001449585
   vertex -8.998991966247559 40.080001831054688 -12.386050224304199
  endloop
 endfacet
 facet normal 0 1 0
  outer loop
   vertex -8.998991966247559 40.080001831054688 -12.386050224304199
   vertex 14.560675621032715 40.080001831054688 4.73105001449585
   vertex 8.998991966247559 40.080001831054688 -12.386050224304199
  endloop
 endfacet
 facet normal 0 -1 0
  outer loop
   vertex 0 24.770000457763672 24.770000457763672
   vertex -23.557670593261719 24.770000457763672 7.654350757598877
   vertex 23.557670593261719 24.770000457763672 7.654350757598877
  endloop
 endfacet
 facet normal 0 -1 0
  outer loop
   vertex 23.557670593261719 24.770000457763672 7.654350757598877
   vertex -23.557670593261719 24.770000457763672 7.654350757598877
   vertex -14.559440612792969 24.770000457763672 -20.039350509643555
  endloop
 endfacet
 facet normal 0 -1 0
  outer loop
   vertex 23.557670593261719 24.770000457763672 7.654350757598877
   vertex -14.559440612792969 24.770000457763672 -20.039350509643555
   vertex 14.559440612792969 24.770000457763672 -20.039350509643555
  endloop
 endfacet
 facet normal -0.525754451751709 0.447134166955948 0.723638892173767
  outer loop
   vertex -23.557670593261719 24.770000457763672 7.654350757598877
   vertex 0 24.770000457763672 24.770000457763672
   vertex -14.560675621032715 40.080001831054688 4.73105001449585
  endloop
 endfacet
 facet normal -0.525754451751709 0.447134166955948 0.723638892173767
  outer loop
   vertex -14.560675621032715 40.080001831054688 4.73105001449585
   vertex 0 24.770000457763672 24.770000457763672
   vertex 0 40.080001831054688 15.310000419616699
  endloop
 endfacet
 facet normal 0.525754451751709 0.447134166955948 0.723638892173767
  outer loop
   vertex 0 24.770000457763672 24.770000457763672
   vertex 23.557670593261719 24.770000457763672 7.654350757598877
   vertex 0 40.080001831054688 15.310000419616699
  endloop
 endfacet
 facet normal 0.525754451751709 0.447134166955948 0.723638892173767
  outer loop
   vertex 0 40.080001831054688 15.310000419616699
   vertex 23.557670593261719 24.770000457763672 7.654350757598877
   vertex 14.560675621032715 40.080001831054688 4.73105001449585
  endloop
 endfacet
 facet normal 0.850688576698303 0.447134166955948 -0.276405483484268
  outer loop
   vertex 23.557670593261719 24.770000457763672 7.654350757598877
   vertex 14.559440612792969 24.770000457763672 -20.039350509643555
   vertex 14.560675621032715 40.080001831054688 4.73105001449585
  endloop
 endfacet
 facet normal 0.850688576698303 0.447134166955948 -0.276405483484268
  outer loop
   vertex 14.560675621032715 40.080001831054688 4.73105001449585
   vertex 14.559440612792969 24.770000457763672 -20.039350509643555
   vertex 8.998991966247559 40.080001831054688 -12.386050224304199
  endloop
 endfacet
 facet normal 0 0.447134166955948 -0.894466876983643
  outer loop
   vertex 14.559440612792969 24.770000457763672 -20.039350509643555
   vertex -14.559440612792969 24.770000457763672 -20.039350509643555
   vertex 8.998991966247559 40.080001831054688 -12.386050224304199
  endloop
 endfacet
 facet normal 0 0.447134166955948 -0.894466876983643
  outer loop
   vertex 8.998991966247559 40.080001831054688 -12.386050224304199
   vertex -14.559440612792969 24.770000457763672 -20.039350509643555
   vertex -8.998991966247559 40.080001831054688 -12.386050224304199
  endloop
 endfacet
 facet normal -0.850688576698303 0.447134166955948 -0.276405483484268
  outer loop
   vertex -14.559440612792969 24.770000457763672 -20.039350509643555
   vertex -23.557670593261719 24.770000457763672 7.654350757598877
   vertex -8.998991966247559 40.080001831054688 -12.386050224304199
  endloop
 endfacet
 facet normal -0.850688576698303 0.447134166955948 -0.276405483484268
  outer loop
   vertex -8.998991966247559 40.080001831054688 -12.386050224304199
   vertex -23.557670593261719 24.770000457763672 7.654350757598877
   vertex -14.560675621032715 40.080001831054688 4.73105001449585
  endloop
 endfacet
 facet normal 0 -1 0
  outer loop
   vertex 0 0 -15.310000419616699
   vertex 14.560675621032715 0 -4.73105001449585
   vertex -14.560675621032715 0 -4.73105001449585
  endloop
 endfacet
 facet normal 0 -1 0
  outer loop
   vertex -14.560675621032715 0 -4.73105001449585
   vertex 14.560675621032715 0 -4.73105001449585
   vertex -8.998991966247559 0 12.386050224304199
  endloop
 endfacet
 facet normal 0 -1 0
  outer loop
   vertex -8.998991966247559 0 12.386050224304199
   vertex 14.560675621032715 0 -4.73105001449585
   vertex 8.998991966247559 0 12.386050224304199
  endloop
 endfacet
 facet normal 0 1 0
  outer loop
   vertex 0 15.310000419616699 -24.770000457763672
   vertex -23.557670593261719 15.310000419616699 -7.654350757598877
   vertex 23.557670593261719 15.310000419616699 -7.654350757598877
  endloop
 endfacet
 facet normal 0 1 0
  outer loop
   vertex 23.557670593261719 15.310000419616699 -7.654350757598877
   vertex -23.557670593261719 15.310000419616699 -7.654350757598877
   vertex -14.559440612792969 15.310000419616699 20.039350509643555
  endloop
 endfacet
 facet normal 0 1 0
  outer loop
   vertex 23.557670593261719 15.310000419616699 -7.654350757598877
   vertex -14.559440612792969 15.310000419616699 20.039350509643555
   vertex 14.559440612792969 15.310000419616699 20.039350509643555
  endloop
 endfacet
 facet normal 0.525754451751709 -0.447134166955948 -0.723638892173767
  outer loop
   vertex 0 15.310000419616699 -24.770000457763672
   vertex 23.557670593261719 15.310000419616699 -7.654350757598877
   vertex 0 0 -15.310000419616699
  endloop
 endfacet
 facet normal 0.525754451751709 -0.447134166955948 -0.723638892173767
  outer loop
   vertex 0 0 -15.310000419616699
   vertex 23.557670593261719 15.310000419616699 -7.654350757598877
   vertex 14.560675621032715 0 -4.73105001449585
  endloop
 endfacet
 facet normal -0.525754451751709 -0.447134166955948 -0.723638892173767
  outer loop
   vertex -23.557670593261719 15.310000419616699 -7.654350757598877
   vertex 0 15.310000419616699 -24.770000457763672
   vertex -14.560675621032715 0 -4.73105001449585
  endloop
 endfacet
 facet normal -0.525754451751709 -0.447134166955948 -0.723638892173767
  outer loop
   vertex -14.560675621032715 0 -4.73105001449585
   vertex 0 15.310000419616699 -24.770000457763672
   vertex 0 0 -15.310000419616699
  endloop
 endfacet
 facet normal -0.850688576698303 -0.447134166955948 0.276405483484268
  outer loop
   vertex -14.559440612792969 15.310000419616699 20.039350509643555
   vertex -23.557670593261719 15.310000419616699 -7.654350757598877
   vertex -8.998991966247559 0 12.386050224304199
  endloop
 endfacet
 facet normal -0.850688576698303 -0.447134166955948 0.276405483484268
  outer loop
   vertex -8.998991966247559 0 12.386050224304199
   vertex -23.557670593261719 15.310000419616699 -7.654350757598877
   vertex -14.560675621032715 0 -4.73105001449585
  endloop
 endfacet
 facet normal 0 -0.447134166955948 0.894466876983643
  outer loop
   vertex 14.559440612792969 15.310000419616699 20.039350509643555
   vertex -14.559440612792969 15.310000419616699 20.039350509643555
   vertex 8.998991966247559 0 12.386050224304199
  endloop
 endfacet
 facet normal -0 -0.447134166955948 0.894466876983643
  outer loop
   vertex 8.998991966247559 0 12.386050224304199
   vertex -14.559440612792969 15.310000419616699 20.039350509643555
   vertex -8.998991966247559 0 12.386050224304199
  endloop
 endfacet
 facet normal 0.850688576698303 -0.447134166955948 0.276405483484268
  outer loop
   vertex 23.557670593261719 15.310000419616699 -7.654350757598877
   vertex 14.559440612792969 15.310000419616699 20.039350509643555
   vertex 14.560675621032715 0 -4.73105001449585
  endloop
 endfacet
 facet normal 0.850688576698303 -0.447134166955948 0.276405483484268
  outer loop
   vertex 14.560675621032715 0 -4.73105001449585
   vertex 14.559440612792969 15.310000419616699 20.039350509643555
   vertex 8.998991966247559 0 12.386050224304199
  endloop
 endfacet
 facet normal -0 1 -0
  outer loop
   vertex -14.559440612792969 24.770000457763672 -20.039350509643555
   vertex -23.557670593261719 24.770000457763672 7.654350757598877
   vertex 14.559440612792969 24.770000457763672 -20.039350509643555
  endloop
 endfacet
 facet normal -0 1 -0
  outer loop
   vertex 14.559440612792969 24.770000457763672 -20.039350509643555
   vertex -23.557670593261719 24.770000457763672 7.654350757598877
   vertex -0.000000000000004 24.770000457763672 24.770000457763672
  endloop
 endfacet
 facet normal 0 1 0
  outer loop
   vertex 14.559440612792969 24.770000457763672 -20.039350509643555
   vertex -0.000000000000004 24.770000457763672 24.770000457763672
   vertex 23.557670593261719 24.770000457763672 7.654350757598877
  endloop
 endfacet
 facet normal 0.850621223449707 -0.447290569543839 0.276359766721725
  outer loop
   vertex 14.559440612792969 15.310000419616699 20.039350509643555
   vertex 23.557170867919922 15.31020450592041 -7.654868125915527
   vertex 23.557670593261719 24.770000457763672 7.654350757598877
  endloop
 endfacet
 facet normal 0.85063511133194 0.447246581315994 -0.276388108730316
  outer loop
   vertex 23.557670593261719 24.770000457763672 7.654350757598877
   vertex 23.557170867919922 15.31020450592041 -7.654868125915527
   vertex 14.559440612792969 24.770000457763672 -20.039350509643555
  endloop
 endfacet
 facet normal 0.525716364383698 -0.447261840105057 -0.723587691783905
  outer loop
   vertex 23.557170867919922 15.31020450592041 -7.654868125915527
   vertex 0 15.310000419616699 -24.770000457763672
   vertex 14.559440612792969 24.770000457763672 -20.039350509643555
  endloop
 endfacet
 facet normal -0 0.447262674570084 -0.894402623176575
  outer loop
   vertex 14.559440612792969 24.770000457763672 -20.039350509643555
   vertex 0 15.310000419616699 -24.770000457763672
   vertex -14.559440612792969 24.770000457763672 -20.039350509643555
  endloop
 endfacet
 facet normal -0.525716662406921 -0.447262674570084 -0.723586916923523
  outer loop
   vertex 0 15.310000419616699 -24.770000457763672
   vertex -23.557670593261719 15.310000419616699 -7.654350757598877
   vertex -14.559440612792969 24.770000457763672 -20.039350509643555
  endloop
 endfacet
 facet normal 0.525716662406921 0.447262674570084 0.723586916923523
  outer loop
   vertex 23.557670593261719 24.770000457763672 7.654350757598877
   vertex -0.000000000000004 24.770000457763672 24.770000457763672
   vertex 14.559440612792969 15.310000419616699 20.039350509643555
  endloop
 endfacet
 facet normal -0 -0.447262674570084 0.894402623176575
  outer loop
   vertex -14.559440612792969 15.310000419616699 20.039350509643555
   vertex 14.559440612792969 15.310000419616699 20.039350509643555
   vertex -0.000000000000004 24.770000457763672 24.770000457763672
  endloop
 endfacet
 facet normal -0.850627481937408 0.447262674570084 -0.276385605335236
  outer loop
   vertex -23.557670593261719 15.310000419616699 -7.654350757598877
   vertex -23.557670593261719 24.770000457763672 7.654350757598877
   vertex -14.559440612792969 24.770000457763672 -20.039350509643555
  endloop
 endfacet
 facet normal -0.850627481937408 -0.447262674570084 0.276385605335236
  outer loop
   vertex -23.557670593261719 24.770000457763672 7.654350757598877
   vertex -23.557670593261719 15.310000419616699 -7.654350757598877
   vertex -14.559440612792969 15.310000419616699 20.039350509643555
  endloop
 endfacet
 facet normal -0.525716662406921 0.447262674570084 0.723586916923523
  outer loop
   vertex -14.559440612792969 15.310000419616699 20.039350509643555
   vertex -0.000000000000004 24.770000457763672 24.770000457763672
   vertex -23.557670593261719 24.770000457763672 7.654350757598877
  endloop
 endfacet
 facet normal 0.000004343776254 -1 0.000005978695299
  outer loop
   vertex 0 15.310000419616699 -24.770000457763672
   vertex 23.557170867919922 15.31020450592041 -7.654868125915527
   vertex -23.557670593261719 15.310000419616699 -7.654350757598877
  endloop
 endfacet
 facet normal 0.000004343695309 -1 -0.000001411352059
  outer loop
   vertex -23.557670593261719 15.310000419616699 -7.654350757598877
   vertex 23.557170867919922 15.31020450592041 -7.654868125915527
   vertex -14.559440612792969 15.310000419616699 20.039350509643555
  endloop
 endfacet
 facet normal -0 -1 -0.000007389745406
  outer loop
   vertex -14.559440612792969 15.310000419616699 20.039350509643555
   vertex 23.557170867919922 15.31020450592041 -7.654868125915527
   vertex 14.559440612792969 15.310000419616699 20.039350509643555
  endloop
 endfacet
endsolid
