solid STLB ATF 2.0.0.9000 COLOR=                                                  
 facet normal 0 0.794673979282379 -0.607036411762238
  outer loop
   vertex 13.001810073852539 22.100000381469727 -17.895456314086914
   vertex -13.001810073852539 22.100000381469727 -17.895456314086914
   vertex 0 35.770000457763672 0
  endloop
 endfacet
 facet normal -0.934142589569092 0.187756255269051 -0.303521335124969
  outer loop
   vertex -21.037370681762695 22.100000381469727 6.835455894470215
   vertex -13.001810073852539 22.100000381469727 -17.895456314086914
   vertex -21.037370681762695 0 -6.835455894470215
  endloop
 endfacet
 facet normal -0.577325940132141 0.794673979282379 -0.187584578990936
  outer loop
   vertex -21.037370681762695 22.100000381469727 6.835455894470215
   vertex 0 35.770000457763672 0
   vertex -13.001810073852539 22.100000381469727 -17.895456314086914
  endloop
 endfacet
 facet normal 0 0.187756255269051 -0.982215642929077
  outer loop
   vertex 13.001810073852539 22.100000381469727 -17.895456314086914
   vertex 0 0 -22.120000839233398
   vertex -13.001810073852539 22.100000381469727 -17.895456314086914
  endloop
 endfacet
 facet normal 0.577325940132141 0.794673979282379 -0.187584578990936
  outer loop
   vertex 13.001810073852539 22.100000381469727 -17.895456314086914
   vertex 0 35.770000457763672 0
   vertex 21.037370681762695 22.100000381469727 6.835455894470215
  endloop
 endfacet
 facet normal -0.356807053089142 0.794673979282379 0.491102784872055
  outer loop
   vertex 0 22.100000381469727 22.120000839233398
   vertex 0 35.770000457763672 0
   vertex -21.037370681762695 22.100000381469727 6.835455894470215
  endloop
 endfacet
 facet normal -0.577331900596619 -0.187756255269051 -0.794629156589508
  outer loop
   vertex -21.037370681762695 0 -6.835455894470215
   vertex -13.001810073852539 22.100000381469727 -17.895456314086914
   vertex 0 0 -22.120000839233398
  endloop
 endfacet
 facet normal 0.356807053089142 0.794673979282379 0.491102784872055
  outer loop
   vertex 21.037370681762695 22.100000381469727 6.835455894470215
   vertex 0 35.770000457763672 0
   vertex 0 22.100000381469727 22.120000839233398
  endloop
 endfacet
 facet normal 0.577331900596619 -0.187756255269051 -0.794629156589508
  outer loop
   vertex 0 0 -22.120000839233398
   vertex 13.001810073852539 22.100000381469727 -17.895456314086914
   vertex 21.037370681762695 0 -6.835455894470215
  endloop
 endfacet
 facet normal -0.577325940132141 -0.794673979282379 0.187584578990936
  outer loop
   vertex -13.001810073852539 0 17.895456314086914
   vertex -21.037370681762695 0 -6.835455894470215
   vertex 0 -13.670000076293945 0
  endloop
 endfacet
 facet normal -0.356807053089142 -0.794673979282379 -0.491102784872055
  outer loop
   vertex 0 -13.670000076293945 0
   vertex -21.037370681762695 0 -6.835455894470215
   vertex 0 0 -22.120000839233398
  endloop
 endfacet
 facet normal -0.934142589569092 -0.187756255269051 0.303521335124969
  outer loop
   vertex -13.001810073852539 0 17.895456314086914
   vertex -21.037370681762695 22.100000381469727 6.835455894470215
   vertex -21.037370681762695 0 -6.835455894470215
  endloop
 endfacet
 facet normal 0.356807053089142 -0.794673979282379 -0.491102784872055
  outer loop
   vertex 0 0 -22.120000839233398
   vertex 21.037370681762695 0 -6.835455894470215
   vertex 0 -13.670000076293945 0
  endloop
 endfacet
 facet normal -0.577331900596619 0.187756255269051 0.794629156589508
  outer loop
   vertex -13.001810073852539 0 17.895456314086914
   vertex 0 22.100000381469727 22.120000839233398
   vertex -21.037370681762695 22.100000381469727 6.835455894470215
  endloop
 endfacet
 facet normal 0.577331900596619 0.187756255269051 0.794629156589508
  outer loop
   vertex 21.037370681762695 22.100000381469727 6.835455894470215
   vertex 0 22.100000381469727 22.120000839233398
   vertex 13.001810073852539 0 17.895456314086914
  endloop
 endfacet
 facet normal -0 -0.187756255269051 0.982215642929077
  outer loop
   vertex -13.001810073852539 0 17.895456314086914
   vertex 13.001810073852539 0 17.895456314086914
   vertex 0 22.100000381469727 22.120000839233398
  endloop
 endfacet
 facet normal 0.934142589569092 0.187756255269051 -0.303521335124969
  outer loop
   vertex 21.037370681762695 0 -6.835455894470215
   vertex 13.001810073852539 22.100000381469727 -17.895456314086914
   vertex 21.037370681762695 22.100000381469727 6.835455894470215
  endloop
 endfacet
 facet normal 0.934142589569092 -0.187756255269051 0.303521335124969
  outer loop
   vertex 21.037370681762695 22.100000381469727 6.835455894470215
   vertex 13.001810073852539 0 17.895456314086914
   vertex 21.037370681762695 0 -6.835455894470215
  endloop
 endfacet
 facet normal 0.577325940132141 -0.794673979282379 0.187584578990936
  outer loop
   vertex 21.037370681762695 0 -6.835455894470215
   vertex 13.001810073852539 0 17.895456314086914
   vertex 0 -13.670000076293945 0
  endloop
 endfacet
 facet normal -0 -0.794673979282379 0.607036411762238
  outer loop
   vertex 13.001810073852539 0 17.895456314086914
   vertex -13.001810073852539 0 17.895456314086914
   vertex 0 -13.670000076293945 0
  endloop
 endfacet
endsolid
