solid STLB ATF 2.0.0.9000 COLOR=                                                  
 facet normal 0 -1 0
  outer loop
   vertex 0 0 -23.670000076293945
   vertex 20.498821258544922 0 11.835000038146973
   vertex -20.498821258544922 0 11.835000038146973
  endloop
 endfacet
 facet normal 0.816511631011963 0.333284080028534 -0.471413224935532
  outer loop
   vertex 20.498821258544922 0 11.835000038146973
   vertex 0 0 -23.670000076293945
   vertex 0 33.479999542236328 0
  endloop
 endfacet
 facet normal -0.816511631011963 0.333284080028534 -0.471413224935532
  outer loop
   vertex 0 0 -23.670000076293945
   vertex -20.498821258544922 0 11.835000038146973
   vertex 0 33.479999542236328 0
  endloop
 endfacet
 facet normal -0 0.333284080028534 0.942826449871063
  outer loop
   vertex -20.498821258544922 0 11.835000038146973
   vertex 20.498821258544922 0 11.835000038146973
   vertex 0 33.479999542236328 0
  endloop
 endfacet
endsolid
