solid STLB ATF 2.0.0.9000 COLOR=                                                  
 facet normal 0 0.5734623670578 0.819231927394867
  outer loop
   vertex 17.5 0 17.5
   vertex 0 25 0
   vertex -17.5 0 17.5
  endloop
 endfacet
 facet normal 0.819231927394867 0.5734623670578 0
  outer loop
   vertex 17.5 0 17.5
   vertex 17.5 0 -17.5
   vertex 0 25 0
  endloop
 endfacet
 facet normal 0 -0.577330648899078 0.816510438919067
  outer loop
   vertex -17.5 0 17.5
   vertex 0 -24.75 0
   vertex 17.5 0 17.5
  endloop
 endfacet
 facet normal -0.819231927394867 0.5734623670578 0
  outer loop
   vertex -17.5 0 17.5
   vertex 0 25 0
   vertex -17.5 0 -17.5
  endloop
 endfacet
 facet normal 0 0.5734623670578 -0.819231927394867
  outer loop
   vertex -17.5 0 -17.5
   vertex 0 25 0
   vertex 17.5 0 -17.5
  endloop
 endfacet
 facet normal 0.816510438919067 -0.577330648899078 0
  outer loop
   vertex 17.5 0 -17.5
   vertex 17.5 0 17.5
   vertex 0 -24.75 0
  endloop
 endfacet
 facet normal -0.816510438919067 -0.577330648899078 0
  outer loop
   vertex -17.5 0 -17.5
   vertex 0 -24.75 0
   vertex -17.5 0 17.5
  endloop
 endfacet
 facet normal 0 -0.577330648899078 -0.816510438919067
  outer loop
   vertex 0 -24.75 0
   vertex -17.5 0 -17.5
   vertex 17.5 0 -17.5
  endloop
 endfacet
endsolid
